<svg width="145" height="40" viewBox="0 0 145 40" fill="none" xmlns="http://www.w3.org/2000/svg">
<path d="M43.6279 31.293C41.4795 31.293 39.7314 30.5898 38.3838 29.1836C37.0361 27.7676 36.3623 25.8779 36.3623 23.5146V23.0166C36.3623 21.4443 36.6602 20.043 37.2559 18.8125C37.8613 17.5723 38.7012 16.6055 39.7754 15.9121C40.8594 15.209 42.0312 14.8574 43.291 14.8574C45.3516 14.8574 46.9531 15.5361 48.0957 16.8936C49.2383 18.251 49.8096 20.1943 49.8096 22.7236V23.8516H39.0723C39.1113 25.4141 39.5654 26.6787 40.4346 27.6455C41.3135 28.6025 42.4268 29.0811 43.7744 29.0811C44.7314 29.0811 45.542 28.8857 46.2061 28.4951C46.8701 28.1045 47.4512 27.5869 47.9492 26.9424L49.6045 28.2314C48.2764 30.2725 46.2842 31.293 43.6279 31.293ZM43.291 17.084C42.1973 17.084 41.2793 17.4844 40.5371 18.2852C39.7949 19.0762 39.3359 20.1895 39.1602 21.625H47.0996V21.4199C47.0215 20.043 46.6504 18.9785 45.9863 18.2266C45.3223 17.4648 44.4238 17.084 43.291 17.084ZM62.7441 31C62.5879 30.6875 62.4609 30.1309 62.3633 29.3301C61.1035 30.6387 59.5996 31.293 57.8516 31.293C56.2891 31.293 55.0049 30.8535 53.999 29.9746C53.0029 29.0859 52.5049 27.9629 52.5049 26.6055C52.5049 24.9551 53.1299 23.6758 54.3799 22.7676C55.6396 21.8496 57.4072 21.3906 59.6826 21.3906H62.3193V20.1455C62.3193 19.1982 62.0361 18.4463 61.4697 17.8896C60.9033 17.3232 60.0684 17.04 58.9648 17.04C57.998 17.04 57.1875 17.2842 56.5332 17.7725C55.8789 18.2607 55.5518 18.8516 55.5518 19.5449H52.8271C52.8271 18.7539 53.1055 17.9922 53.6621 17.2598C54.2285 16.5176 54.9902 15.9316 55.9473 15.502C56.9141 15.0723 57.9736 14.8574 59.126 14.8574C60.9521 14.8574 62.3828 15.3164 63.418 16.2344C64.4531 17.1426 64.9902 18.3975 65.0293 19.999V27.2939C65.0293 28.749 65.2148 29.9062 65.5859 30.7656V31H62.7441ZM58.2471 28.9346C59.0967 28.9346 59.9023 28.7148 60.6641 28.2754C61.4258 27.8359 61.9775 27.2646 62.3193 26.5615V23.3096H60.1953C56.875 23.3096 55.2148 24.2812 55.2148 26.2246C55.2148 27.0742 55.498 27.7383 56.0645 28.2168C56.6309 28.6953 57.3584 28.9346 58.2471 28.9346ZM78.5059 26.7959C78.5059 26.0635 78.2275 25.4971 77.6709 25.0967C77.124 24.6865 76.1621 24.335 74.7852 24.042C73.418 23.749 72.3291 23.3975 71.5186 22.9873C70.7178 22.5771 70.1221 22.0889 69.7314 21.5225C69.3506 20.9561 69.1602 20.2822 69.1602 19.501C69.1602 18.2021 69.707 17.1035 70.8008 16.2051C71.9043 15.3066 73.3105 14.8574 75.0195 14.8574C76.8164 14.8574 78.2715 15.3213 79.3848 16.249C80.5078 17.1768 81.0693 18.3633 81.0693 19.8086H78.3447C78.3447 19.0664 78.0273 18.4268 77.3926 17.8896C76.7676 17.3525 75.9766 17.084 75.0195 17.084C74.0332 17.084 73.2617 17.2988 72.7051 17.7285C72.1484 18.1582 71.8701 18.7197 71.8701 19.4131C71.8701 20.0674 72.1289 20.5605 72.6465 20.8926C73.1641 21.2246 74.0967 21.542 75.4443 21.8447C76.8018 22.1475 77.9004 22.5088 78.7402 22.9287C79.5801 23.3486 80.2002 23.8564 80.6006 24.4521C81.0107 25.0381 81.2158 25.7559 81.2158 26.6055C81.2158 28.0215 80.6494 29.1592 79.5166 30.0186C78.3838 30.8682 76.9141 31.293 75.1074 31.293C73.8379 31.293 72.7148 31.0684 71.7383 30.6191C70.7617 30.1699 69.9951 29.5449 69.4385 28.7441C68.8916 27.9336 68.6182 27.0596 68.6182 26.1221H71.3281C71.377 27.0303 71.7383 27.7529 72.4121 28.29C73.0957 28.8174 73.9941 29.0811 75.1074 29.0811C76.1328 29.0811 76.9531 28.876 77.5684 28.4658C78.1934 28.0459 78.5059 27.4893 78.5059 26.7959ZM89.9316 27.0303L93.623 15.1504H96.5234L90.1514 33.4463C89.165 36.083 87.5977 37.4014 85.4492 37.4014L84.9365 37.3574L83.9258 37.167V34.9697L84.6582 35.0283C85.5762 35.0283 86.2891 34.8428 86.7969 34.4717C87.3145 34.1006 87.7393 33.4219 88.0713 32.4355L88.6719 30.8242L83.0176 15.1504H85.9766L89.9316 27.0303ZM109.443 25.5068C109.443 24.6084 109.126 23.8516 108.491 23.2363C107.866 22.6211 106.807 22.0645 105.312 21.5664C103.232 20.9316 101.714 20.1064 100.757 19.0908C99.8096 18.0654 99.3359 16.7666 99.3359 15.1943C99.3359 13.5928 99.7998 12.2793 100.728 11.2539C101.665 10.2285 102.949 9.61816 104.58 9.42285V6.21484H106.763V9.4375C108.403 9.66211 109.678 10.3506 110.586 11.5029C111.504 12.6553 111.963 14.2324 111.963 16.2344H109.268C109.268 14.8574 108.94 13.7637 108.286 12.9531C107.632 12.1426 106.748 11.7373 105.635 11.7373C104.473 11.7373 103.584 12.04 102.969 12.6455C102.354 13.2412 102.046 14.0762 102.046 15.1504C102.046 16.1465 102.368 16.9424 103.013 17.5381C103.667 18.124 104.736 18.6611 106.221 19.1494C107.715 19.6279 108.877 20.1602 109.707 20.7461C110.547 21.3223 111.162 21.9961 111.553 22.7676C111.953 23.5391 112.153 24.4424 112.153 25.4775C112.153 27.1279 111.655 28.4561 110.659 29.4619C109.673 30.4678 108.286 31.0635 106.499 31.249V34.0469H104.331V31.249C102.515 31.083 101.089 30.4385 100.054 29.3154C99.0283 28.1826 98.5156 26.6494 98.5156 24.7158H101.226C101.226 26.0732 101.582 27.1182 102.295 27.8506C103.008 28.583 104.019 28.9492 105.327 28.9492C106.606 28.9492 107.612 28.6416 108.345 28.0264C109.077 27.4111 109.443 26.5713 109.443 25.5068ZM122.378 31.293C120.229 31.293 118.481 30.5898 117.134 29.1836C115.786 27.7676 115.112 25.8779 115.112 23.5146V23.0166C115.112 21.4443 115.41 20.043 116.006 18.8125C116.611 17.5723 117.451 16.6055 118.525 15.9121C119.609 15.209 120.781 14.8574 122.041 14.8574C124.102 14.8574 125.703 15.5361 126.846 16.8936C127.988 18.251 128.56 20.1943 128.56 22.7236V23.8516H117.822C117.861 25.4141 118.315 26.6787 119.185 27.6455C120.063 28.6025 121.177 29.0811 122.524 29.0811C123.481 29.0811 124.292 28.8857 124.956 28.4951C125.62 28.1045 126.201 27.5869 126.699 26.9424L128.354 28.2314C127.026 30.2725 125.034 31.293 122.378 31.293ZM122.041 17.084C120.947 17.084 120.029 17.4844 119.287 18.2852C118.545 19.0762 118.086 20.1895 117.91 21.625H125.85V21.4199C125.771 20.043 125.4 18.9785 124.736 18.2266C124.072 17.4648 123.174 17.084 122.041 17.084ZM134.653 31H131.943V8.5H134.653V31ZM141.948 31H139.238V8.5H141.948V31Z" fill="#155263"/>
<path d="M23.1418 7.19469H22.0813H19.762H18.4303V5.95508C18.4072 2.66742 15.7259 0 12.433 0C9.13973 0 6.45883 2.66785 6.4358 5.95551V7.19512H5.10404H1.72424L0 29.7389C0 31.7761 1.65165 33.4277 3.68884 33.4277H4.21563V19.7546C4.21563 17.5206 6.03332 15.7029 8.26739 15.7029H16.5982C18.8323 15.7029 20.65 17.5206 20.6504 19.7546V21.8405V32.5941V33.4273H21.1772C23.2144 33.4273 24.8661 31.7756 24.8661 29.7385L23.1418 7.19469ZM7.33204 11.5451C6.83698 11.5451 6.43536 11.1434 6.43536 10.6484C6.43536 10.1533 6.83698 9.75171 7.33204 9.75171C7.8271 9.75171 8.22871 10.1533 8.22871 10.6484C8.22871 11.1439 7.82753 11.5451 7.33204 11.5451ZM8.22871 7.19469V5.95508H8.23088C8.23088 3.63451 10.1125 1.75293 12.433 1.75293C14.754 1.75293 16.6352 3.63407 16.6352 5.95508H16.6374V7.19469H12.433H8.22871ZM17.4932 11.5451C16.9981 11.5451 16.5965 11.1434 16.5965 10.6484C16.5965 10.1533 16.9981 9.75171 17.4932 9.75171C17.9882 9.75171 18.3899 10.1533 18.3899 10.6484C18.3899 11.1439 17.9887 11.5451 17.4932 11.5451ZM19.0388 32.5941V21.8405V19.7546C19.0388 18.4125 17.9404 17.3141 16.5982 17.3141H8.26739C6.92521 17.3141 5.82686 18.4125 5.82686 19.7546V37.5595C5.82686 38.9017 6.92521 40 8.26739 40H16.5982C17.9404 40 19.0388 38.9017 19.0388 37.5595V32.5941ZM13.4814 38.9738H11.1317C10.7831 38.9738 10.5006 38.6913 10.5006 38.3427C10.5006 37.9941 10.7831 37.7116 11.1317 37.7116H13.4814C13.83 37.7116 14.1125 37.9941 14.1125 38.3427C14.1125 38.6908 13.83 38.9738 13.4814 38.9738ZM17.744 21.3715V21.8405V32.5758V33.8206V36.0517C17.744 36.3964 17.4619 36.678 17.1172 36.678H7.74843C7.40375 36.678 7.1221 36.3959 7.1221 36.0517V21.2624C7.1221 20.9178 7.40419 20.6361 7.74843 20.6361H17.1172C17.4619 20.6361 17.744 20.9182 17.744 21.2624V21.3715ZM14.0943 30.9381C13.8417 31.2449 13.5136 31.451 13.1298 31.5561C12.9624 31.6018 12.8877 31.6896 12.8955 31.8634C12.9029 32.0338 12.8946 32.2051 12.8942 32.3759C12.8938 32.5284 12.8164 32.6097 12.666 32.6136C12.4822 32.6184 12.2983 32.618 12.1144 32.6149C11.9532 32.6119 11.8776 32.5206 11.8754 32.3633C11.8741 32.2385 11.8732 32.1138 11.8719 31.9886C11.8693 31.7135 11.8606 31.7017 11.5955 31.66C11.2565 31.6061 10.9239 31.5292 10.6136 31.3788C10.3698 31.2606 10.345 31.1997 10.415 30.9442C10.4671 30.7542 10.5193 30.5638 10.5784 30.3756C10.6471 30.157 10.7058 30.1296 10.907 30.2344C11.2499 30.413 11.6146 30.513 11.9962 30.5608C12.2427 30.5917 12.4826 30.5665 12.7108 30.4669C13.1359 30.2813 13.2024 29.788 12.8433 29.4924C12.7208 29.3916 12.5821 29.3177 12.4369 29.2538C12.0645 29.09 11.675 28.9648 11.323 28.754C10.7518 28.4119 10.3893 27.9425 10.4319 27.2471C10.4797 26.4608 10.9244 25.9705 11.645 25.7084C11.9423 25.6002 11.9436 25.6045 11.9454 25.2938C11.9458 25.1886 11.9441 25.0834 11.9467 24.9782C11.9528 24.7439 11.9927 24.704 12.2253 24.697C12.2974 24.6948 12.37 24.6966 12.4422 24.6966C12.939 24.6957 12.939 24.6957 12.9411 25.1934C12.9424 25.5446 12.9424 25.5463 13.2928 25.6011C13.5609 25.6428 13.817 25.7219 14.0647 25.8314C14.2016 25.8918 14.2529 25.987 14.2112 26.1313C14.1486 26.3456 14.0908 26.5616 14.0221 26.7742C13.9573 26.9754 13.893 27.0045 13.7 26.9111C13.3123 26.7233 12.9051 26.6451 12.4765 26.6686C12.3639 26.6746 12.2544 26.6898 12.1501 26.7351C11.7798 26.8972 11.7198 27.3057 12.0349 27.5578C12.1944 27.6856 12.3765 27.7778 12.566 27.8564C12.8938 27.992 13.2241 28.1224 13.5353 28.2946C14.5254 28.844 14.7927 30.0896 14.0943 30.9381Z" fill="#155263"/>
</svg>
